# xmcd
#
# Track frame offsets:
#	150
#	14362
#	28484
#	40620
#	50756
#	63302
#	79083
#	94169
#	106103
#	114983
#	125993
#	138431
#
# Disc length: 2021 seconds
#
# Revision: 1
# Processed by: cddbd v1.5.1PL0 Copyright (c) Steve Scherf et al.
# Submitted via: audiograbber 1.83.01
#
DISCID=a307e30c
DTITLE=Skiffle Track - Third Train We Ride
DYEAR=1900
DGENRE=
TTITLE0=Frankie and Johnny
TTITLE1=Fishing Blues
TTITLE2=Streamline Train
TTITLE3=Silver City Bound
TTITLE4=St. James Infirmary
TTITLE5=Muleskinner Blues
TTITLE6=New Orleans
TTITLE7=Puttin On The Style
TTITLE8=Good Morning Blues
TTITLE9=Battle Of New Orleans
TTITLE10=900 Miles Away From Home
TTITLE11=Going Home
EXTD=
EXTT0=
EXTT1=
EXTT2=
EXTT3=
EXTT4=
EXTT5=
EXTT6=
EXTT7=
EXTT8=
EXTT9=
EXTT10=
EXTT11=
PLAYORDER=
